<svg id="Layer_1" enable-background="new 0 0 2000 2000" height="512" viewBox="0 0 2000 2000" width="512" xmlns="http://www.w3.org/2000/svg"><path d="m1516.19 483.81c-67.03-67.03-145.1-119.66-232.03-156.43-90.02-38.07-185.62-57.38-284.16-57.38s-194.14 19.31-284.16 57.38c-86.93 36.77-165 89.4-232.03 156.43s-119.66 145.1-156.43 232.03c-38.07 90.02-57.38 185.62-57.38 284.16s19.31 194.14 57.38 284.16c36.77 86.93 89.4 165 156.43 232.03s145.1 119.66 232.03 156.43c90.02 38.07 185.62 57.38 284.16 57.38s194.14-19.31 284.16-57.38c86.93-36.77 165-89.4 232.03-156.43s119.66-145.1 156.43-232.03c38.07-90.02 57.38-185.62 57.38-284.16s-19.31-194.14-57.38-284.16c-36.77-86.93-89.4-165-156.43-232.03zm153.81 516.19c0 37.35-15.96 74.21-47.42 109.58-32.57 36.61-79.84 69.79-140.48 98.62-128.27 60.97-299.48 94.55-482.1 94.55-96.57 0-189.96-9.39-275.49-27.26-17.87-85.53-27.26-178.91-27.26-275.49 0-182.61 33.58-353.82 94.55-482.1 28.83-60.64 62.01-107.91 98.62-140.48 35.37-31.46 72.23-47.42 109.58-47.42 369.44 0 670 300.56 670 670zm-839.35-648.31c-34.31 35.82-65.7 82.95-93.03 140.46-64.73 136.15-100.37 316.51-100.37 507.85 0 90.31 7.94 178.17 23.13 260.09-51.53-14.06-99.43-31.43-142.48-51.9-60.64-28.83-107.91-62.01-140.48-98.62-31.46-35.36-47.42-72.22-47.42-109.57 0-310.96 212.94-573.1 500.65-648.31zm-478.96 817.66c35.82 34.31 82.95 65.7 140.46 93.03 54.4 25.86 115.86 47.07 182.25 63.23 16.16 66.39 37.37 127.85 63.23 182.25 27.34 57.51 58.72 104.64 93.03 140.46-233.61-61.07-417.91-245.37-478.97-478.97zm648.31 500.65c-37.35 0-74.21-15.96-109.58-47.42-36.61-32.57-69.79-79.84-98.62-140.48-20.46-43.05-37.84-90.95-51.9-142.48 81.92 15.19 169.78 23.13 260.09 23.13 191.34 0 371.7-35.64 507.85-100.37 57.51-27.34 104.63-58.72 140.46-93.03-75.2 287.71-337.34 500.65-648.3 500.65z"/></svg>