<?xml version="1.0" encoding="utf-8"?>
<!-- Generator: Adobe Illustrator 27.5.0, SVG Export Plug-In . SVG Version: 6.00 Build 0)  -->
<svg version="1.1" id="Layer_1" xmlns="http://www.w3.org/2000/svg" xmlns:xlink="http://www.w3.org/1999/xlink" x="0px" y="0px"
	 viewBox="0 0 492 492" style="enable-background:new 0 0 492 492;" xml:space="preserve">
<circle style="fill:#E3E4E6;" cx="246" cy="246" r="245"/>
<g>
	<g>
		<path style="fill-rule:evenodd;clip-rule:evenodd;fill:#A44F3E;" d="M276,180.7c-3.4-1.9-7.5-1.9-10.9,0l-72.7,42
			c-5.2,3-7,9.6-4,14.8s9.6,7,14.8,4l3-1.7l58.9-34c3.4-1.9,7.5-1.9,10.9,0l58.9,34l3,1.7c5.2,3,11.8,1.2,14.8-4s1.2-11.8-4-14.8
			L276,180.7z"/>
	</g>
	<g>
		<path style="fill-rule:evenodd;clip-rule:evenodd;fill:#FFE8C8;" d="M265.1,205.8l-58.9,34V328c0,2.9,2.4,5.3,5.3,5.3h42.2v-54
			c0-1.5,1.2-2.6,2.6-2.6h28.4c1.5,0,2.6,1.2,2.6,2.6v54l0,0h42.2c2.9,0,5.3-2.4,5.3-5.3v-88.2l-58.9-34
			C272.6,203.8,268.5,203.8,265.1,205.8L265.1,205.8z M270.6,253.6c-7.2,0-13.1-5.9-13.1-13.1s5.9-13.1,13.1-13.1
			c7.2,0,13.1,5.9,13.1,13.1S277.8,253.6,270.6,253.6z"/>
	</g>
	<g>
		<path style="fill-rule:evenodd;clip-rule:evenodd;fill:#F6A96C;" d="M270.6,227.4c-7.2,0-13.1,5.9-13.1,13.1s5.9,13.1,13.1,13.1
			c7.2,0,13.1-5.9,13.1-13.1S277.8,227.4,270.6,227.4z"/>
	</g>
	<g>
		<path style="fill-rule:evenodd;clip-rule:evenodd;fill:#A44F3E;" d="M284.8,276.7h-28.4c-1.4,0-2.6,1.2-2.6,2.6v54l0,0h33.7v-54
			C287.4,277.8,286.2,276.7,284.8,276.7z"/>
	</g>
	<g>
		<path style="fill-rule:evenodd;clip-rule:evenodd;fill:#F0EBEB;" d="M206.2,328v-88.2l-3,1.7c-5.2,3-11.8,1.2-14.8-4
			s-1.2-11.8,4-14.8l72.7-42c3.4-1.9,7.5-1.9,10.9,0l72.7,42c5.2,3,7,9.6,4,14.8s-9.7,7-14.8,4l-3-1.7V328c0,2.9-2.4,5.3-5.3,5.3
			h-42.2l0,0h-33.7l0,0h-42.2C208.6,333.3,206.2,330.9,206.2,328L206.2,328z M384.2,148.5H150.5V364h233.3c3.6,0,6.4-2.9,6.5-6.4
			l0.4-202.5C390.7,151.4,387.8,148.5,384.2,148.5z"/>
	</g>
	<g>
		<polygon style="fill-rule:evenodd;clip-rule:evenodd;fill:#F5D3B3;" points="343.8,102.1 343.8,128.4 369.4,115.2 		"/>
	</g>
	<g>
		<rect x="190.5" y="102.1" style="fill-rule:evenodd;clip-rule:evenodd;fill:#C4CED3;" width="18.8" height="26.3"/>
	</g>
	<g>
		<path style="fill-rule:evenodd;clip-rule:evenodd;fill:#EF5350;" d="M190.5,128.4v-26.3h-12.2c-3.6,0-6.6,3.5-6.6,7.9v10.5
			c0,4.4,2.9,7.9,6.6,7.9H190.5z"/>
	</g>
	<g>
		<rect x="209.3" y="102.1" style="fill-rule:evenodd;clip-rule:evenodd;fill:#FFC107;" width="134.5" height="26.3"/>
	</g>
	<g>
		<path style="fill-rule:evenodd;clip-rule:evenodd;fill:#DBD7D7;" d="M150.5,364V148.5c0-13.5-10.9-24.4-24.4-24.4
			s-24.4,10.9-24.4,24.4v218.1c0-13.5,10.9-24.4,24.4-24.4C138.6,342.2,149,351.9,150.5,364z"/>
	</g>
	<g>
		<path style="fill-rule:evenodd;clip-rule:evenodd;fill:#F0EBEB;" d="M150.5,364c-1.5-12.1-11.9-21.8-24.4-21.8
			c-13.5,0-24.4,10.9-24.4,24.4l0,0c0,13.5,10.9,24.4,24.4,24.4h193.8c8.8,0,15.9-7.1,15.9-15.9V364H150.5L150.5,364z"/>
	</g>
	<g>
		<g>
			<path d="M329.6,336.7h-118c-4.8,0-8.7-3.9-8.7-8.7v-88.2c0-1.9,1.5-3.4,3.4-3.4c1.9,0,3.4,1.5,3.4,3.4V328c0,1.1,0.9,2,2,2h118
				c1.1,0,2-0.9,2-2v-88.2c0-1.9,1.5-3.4,3.4-3.4s3.4,1.5,3.4,3.4V328C338.3,332.8,334.4,336.7,329.6,336.7z"/>
		</g>
		<g>
			<path d="M197.9,246.3c-4.9,0-9.7-2.6-12.3-7.1c-1.9-3.3-2.4-7.1-1.4-10.8c1-3.7,3.3-6.7,6.6-8.6l72.7-42c4.4-2.5,9.8-2.5,14.2,0
				l72.7,42c6.8,3.9,9.1,12.6,5.2,19.4s-12.7,9.1-19.4,5.2l0,0l-61.9-35.7c-2.3-1.3-5.2-1.3-7.5,0L205,244.4
				C202.7,245.7,200.3,246.3,197.9,246.3z M270.6,182.6c-1.3,0-2.6,0.3-3.7,1l-72.7,42c-1.7,1-3,2.6-3.5,4.6c-0.5,1.9-0.3,4,0.7,5.7
				c2.1,3.6,6.7,4.8,10.2,2.7l61.9-35.7c4.4-2.5,9.8-2.5,14.2,0l61.9,35.7l0,0c3.6,2.1,8.2,0.8,10.3-2.8c2.1-3.6,0.8-8.2-2.8-10.2
				l-72.7-42C273.2,182.9,271.9,182.6,270.6,182.6z"/>
		</g>
		<g>
			<path d="M270.6,256.9c-9.1,0-16.4-7.4-16.4-16.4c0-9.1,7.4-16.4,16.4-16.4s16.4,7.4,16.4,16.4C287,249.6,279.6,256.9,270.6,256.9
				z M270.6,230.8c-5.4,0-9.7,4.4-9.7,9.7c0,5.4,4.4,9.7,9.7,9.7c5.4,0,9.7-4.4,9.7-9.7C280.3,235.1,275.9,230.8,270.6,230.8z"/>
		</g>
		<g>
			<path d="M287.4,336.7c-1.9,0-3.4-1.5-3.4-3.4V280h-27v53.3c0,1.9-1.5,3.4-3.4,3.4c-1.9,0-3.4-1.5-3.4-3.4v-54c0-3.3,2.7-6,6-6
				h28.4c3.3,0,6,2.7,6,6v54C290.8,335.2,289.3,336.7,287.4,336.7z"/>
		</g>
		<g>
			<path d="M319.9,394.3H126.1c-15.3,0-27.7-12.4-27.7-27.7c0-15.3,12.4-27.7,27.7-27.7c14.1,0,26,10.6,27.7,24.7
				c0.2,1.8-1.1,3.5-2.9,3.7c-1.8,0.2-3.5-1.1-3.7-2.9c-1.3-10.6-10.5-18.8-21-18.8c-11.6,0-21,9.4-21,21s9.4,21,21,21H320
				c6.9,0,12.5-5.6,12.5-12.5V364c0-1.9,1.5-3.4,3.4-3.4s3.4,1.5,3.4,3.4v11.1C339.2,385.7,330.5,394.3,319.9,394.3z"/>
		</g>
		<g>
			<path d="M101.7,370c-1.9,0-3.4-1.5-3.4-3.4V148.5c0-15.3,12.4-27.7,27.7-27.7c14.2,0,25.9,10.7,27.5,24.4h230.6
				c2.6,0,5.1,1,6.9,2.9c1.8,1.9,2.9,4.3,2.9,7l-0.4,202.5c0,5.4-4.4,9.8-9.8,9.8H150.5c-0.9,0-1.7-0.4-2.4-1c-0.6-0.6-1-1.5-1-2.4
				V148.5c0-11.6-9.4-21-21-21s-21,9.4-21,21v218.1C105.1,368.5,103.6,370,101.7,370z M153.8,151.9v208.7h230c1.7,0,3.1-1.4,3.1-3.1
				l0.4-202.6c0-0.8-0.3-1.6-0.9-2.2c-0.6-0.6-1.4-0.9-2.2-0.9L153.8,151.9L153.8,151.9z"/>
		</g>
		<g>
			<path d="M343.8,131.7H178.3c-5.5,0-9.9-5-9.9-11.2V110c0-6.2,4.5-11.2,9.9-11.2h165.6c0.5,0,1.1,0.1,1.5,0.4l25.6,13.2
				c1.1,0.6,1.8,1.7,1.8,3c0,1.3-0.7,2.4-1.8,3l-25.6,13.2C344.9,131.6,344.4,131.7,343.8,131.7z M178.3,105.4
				c-1.7,0-3.2,2.1-3.2,4.5v10.5c0,2.5,1.5,4.5,3.2,4.5H343l19-9.8l-19-9.8L178.3,105.4L178.3,105.4z"/>
		</g>
		<g>
			<path d="M190.5,131.7c-1.9,0-3.4-1.5-3.4-3.4V102c0-1.9,1.5-3.4,3.4-3.4s3.4,1.5,3.4,3.4v26.3
				C193.9,130.2,192.4,131.7,190.5,131.7z"/>
		</g>
		<g>
			<path d="M209.3,131.7c-1.9,0-3.4-1.5-3.4-3.4V102c0-1.9,1.5-3.4,3.4-3.4c1.9,0,3.4,1.5,3.4,3.4v26.3
				C212.7,130.2,211.2,131.7,209.3,131.7z"/>
		</g>
		<g>
			<path d="M343.8,131.7c-1.9,0-3.4-1.5-3.4-3.4V102c0-1.9,1.5-3.4,3.4-3.4c1.9,0,3.4,1.5,3.4,3.4v26.3
				C347.2,130.2,345.7,131.7,343.8,131.7z"/>
		</g>
	</g>
</g>
</svg>
